<svg width="97" height="97" viewBox="0 0 97 97" fill="none" xmlns="http://www.w3.org/2000/svg">
<path d="M30 48.5L66 48.5M96 48.5C96 74.7335 74.7335 96 48.5 96C22.2665 96 1 74.7335 1 48.5C1 22.2665 22.2665 1 48.5 1C74.7335 1 96 22.2665 96 48.5ZM43.1085 21.004H34.6125V43H30.5445V21.004H22.0125V17.44H43.1085V21.004ZM73.2481 39.436V43H55.7161V17.44H72.9241V21.004H59.7481V28.276H71.1601V31.624H59.7481V39.436H73.2481ZM39.3143 59.452C39.0023 59.092 38.4863 58.72 37.7663 58.336C37.0703 57.928 36.2543 57.58 35.3183 57.292C34.3823 57.004 33.4103 56.86 32.4023 56.86C30.6983 56.86 29.4383 57.172 28.6223 57.796C27.8303 58.42 27.4343 59.284 27.4343 60.388C27.4343 61.204 27.6623 61.852 28.1183 62.332C28.5743 62.788 29.2703 63.184 30.2063 63.52C31.1423 63.832 32.3183 64.156 33.7343 64.492C35.4623 64.9 36.9503 65.392 38.1983 65.968C39.4703 66.52 40.4423 67.264 41.1143 68.2C41.8103 69.136 42.1583 70.372 42.1583 71.908C42.1583 73.66 41.7383 75.076 40.8983 76.156C40.0583 77.236 38.9183 78.028 37.4783 78.532C36.0623 79.012 34.5023 79.252 32.7983 79.252C30.8543 79.252 28.9703 78.952 27.1463 78.352C25.3223 77.752 23.6903 76.9 22.2503 75.796L24.0863 72.34C24.4943 72.748 25.1423 73.216 26.0303 73.744C26.9183 74.248 27.9503 74.692 29.1263 75.076C30.3263 75.436 31.5743 75.616 32.8703 75.616C34.4543 75.616 35.6783 75.34 36.5423 74.788C37.4063 74.212 37.8383 73.396 37.8383 72.34C37.8383 71.476 37.5503 70.792 36.9743 70.288C36.4223 69.76 35.6183 69.328 34.5623 68.992C33.5303 68.632 32.2823 68.26 30.8183 67.876C29.1383 67.444 27.7343 66.952 26.6063 66.4C25.4783 65.848 24.6263 65.152 24.0503 64.312C23.4983 63.472 23.2223 62.38 23.2223 61.036C23.2223 59.356 23.6303 57.94 24.4463 56.788C25.2623 55.612 26.3663 54.736 27.7583 54.16C29.1743 53.56 30.7583 53.26 32.5103 53.26C34.2383 53.26 35.8343 53.536 37.2983 54.088C38.7623 54.64 40.0463 55.324 41.1503 56.14L39.3143 59.452ZM74.1381 57.004H65.6421V79H61.5741V57.004H53.0421V53.44H74.1381V57.004Z" stroke="white"/>
</svg>
